<svg xmlns="http://www.w3.org/2000/svg" height="1024" preserveAspectRatio="none" style="display: block;" version="1.1" viewBox="0 0 2048 2048" width="1024">
<path d="M 0 0 L 2048 0 L 2048 2048 L 0 2048 L 0 0 z" fill="none" transform="translate(0,0)"></path>
<path d="M 878.115 252.415 C 955.747 247.3 987.66 309.974 1060.27 313.59 C 1121.94 316.662 1161.05 270.892 1223.06 266.687 C 1282.16 262.679 1319.3 291.99 1347.81 341.556 C 1357.34 358.125 1368.88 381.356 1379.94 395.525 C 1392.49 411.846 1408.68 425.007 1427.22 433.956 C 1486.85 463.19 1544.02 433.284 1599.15 480.606 C 1659.65 532.542 1641.44 583.453 1643.97 651.704 C 1646.36 715.912 1696.27 752.03 1743.4 785.511 C 1762.74 799.255 1782.25 829.886 1788.4 852.685 C 1814.87 935.064 1734.57 987.254 1737.83 1066.43 C 1739.43 1125.2 1779.39 1160.82 1783.79 1218.3 C 1785.48 1238.01 1782.09 1257.83 1773.94 1275.86 C 1738.81 1354.68 1654.92 1346.98 1616.86 1427.31 C 1587.68 1488.89 1617.23 1543.85 1568.99 1599.07 C 1542.46 1629.59 1503.45 1643.93 1463.54 1642.52 C 1427.22 1641.22 1394.32 1635.33 1359.34 1648.64 C 1311 1667.04 1292.37 1709.22 1261.99 1746.53 C 1239.62 1774 1208.33 1792.24 1172.48 1795.11 C 1089.47 1797.29 1057.93 1732.32 980.769 1733.04 C 931.108 1733.49 884.474 1775.45 830.429 1781.7 C 810.125 1784.08 789.55 1781.26 770.633 1773.52 C 690.67 1740.33 700.468 1654.1 623.435 1616.1 C 564.12 1586.04 507.007 1615.79 451.662 1569.66 C 388.343 1516.87 410.993 1460.99 406.573 1390.86 C 402.817 1331.27 352.608 1296.54 309.026 1264.61 C 288.776 1249.77 270.568 1224.81 262.441 1200.84 C 232.535 1111.18 313.091 1069.76 311.826 984.963 C 310.926 924.656 273.898 895.645 267.45 837.422 C 261.742 785.89 285.732 741.267 328.422 713.607 C 369.964 686.692 409.388 672.982 432.767 624.056 C 461.093 564.777 432.461 506.1 478.877 450.359 C 503.139 419.377 549.868 400.424 588.803 404.104 C 656.104 410.465 709.899 407.42 752.936 348.018 C 762.499 334.818 773.301 318.626 784 305.281 C 808.347 274.913 838.847 256.207 878.115 252.415 z" fill="#d9d3ab" transform="translate(0,0)"></path>
<path d="M 882.634 286.432 C 961.393 287.71 984.037 356.287 1062.87 356.572 C 1125.67 356.8 1165.56 305.467 1224.81 300.285 C 1267.7 295.883 1303.39 323.741 1320.84 361.45 C 1338.55 399.723 1348.65 429.194 1382.95 457.355 C 1442.91 506.599 1523.23 459.042 1580.77 508.741 C 1632.06 553.039 1603.36 614.7 1606.39 671.374 C 1608.52 720.278 1637.52 756.036 1677.95 781.147 C 1709.99 801.044 1744.14 821.299 1755.72 860.388 C 1779.5 940.665 1688.71 985.35 1695.17 1067.09 C 1699.98 1128.13 1746.72 1162.72 1749.67 1222.91 C 1753.93 1277.52 1711.39 1307.39 1666.23 1327.52 C 1611.35 1351.98 1571.71 1392.57 1568.31 1455.68 C 1566.03 1498.1 1574.21 1542.78 1542.3 1578.29 C 1518.98 1604.25 1482.92 1610.84 1448.81 1606.72 C 1373.15 1590.69 1316.86 1602.17 1273 1670.96 C 1261.79 1688.54 1248.2 1711.55 1233.52 1727.92 C 1215 1748.57 1194.45 1759.77 1166.01 1761.1 C 1096.34 1762.11 1059.29 1688.41 984.3 1690.24 C 924.178 1689.92 883.558 1743.8 824.258 1748.03 C 754.971 1752.97 732.771 1696.19 707.757 1644.06 C 698.531 1624.83 683.158 1607.33 667.076 1593.39 C 608.852 1542.93 528.583 1588.2 471.031 1542.31 C 417.469 1498.48 449.03 1429.54 444.693 1373.03 C 439.013 1299.05 379.045 1274.73 327.292 1236.52 C 312.365 1225.5 298.311 1205.3 292.822 1186.56 C 269.929 1108.4 364.04 1061.23 353.748 981.975 C 348.516 918.321 305.725 891.384 300.043 829.981 C 295.527 790.981 320.678 753.785 354.916 736.434 C 403.631 711.746 447.364 696.371 470.965 641.462 C 495.297 584.856 462.355 518.143 506.594 468.256 C 551.493 417.623 615.823 446.704 672.504 444.272 C 716.651 442.61 754.784 413.247 777.551 376.599 C 804.388 333.401 825.42 290.046 882.634 286.432 z" fill="#d9d3ab" transform="translate(0,0)"></path>
<metadata><recraft-signature>{"signed_by": "recraft", "signature_b64": "hVjmn814Db9MewQkZ9dEh76+lN+6cUWcs4me9X8jMtNS7ZspesPkXStxSJ1sHEfZ8KyPah7S12sfmDvpm/XZCw==", "signing_algo": "Ed25519", "generation_timestamp": 1775212500, "identifier": "18cc93ce-ad26-450a-8e49-1ffed88b4bd4"}</recraft-signature></metadata></svg>